<svg width="356" height="381" viewBox="0 0 356 381" fill="none" xmlns="http://www.w3.org/2000/svg">
<g filter="url(#filter0_dd)">
<rect x="44" y="47" width="268" height="255" rx="12" fill="white"/>
</g>
<rect x="136.5" y="87" width="142.5" height="8" rx="4" fill="#E1E8EE"/>
<rect x="136.5" y="105" width="85.0899" height="8" rx="4" fill="#E1E8EE"/>
<rect x="80" y="145" width="199" height="8" rx="4" fill="#E1E8EE"/>
<rect x="80" y="163" width="199" height="8" rx="4" fill="#E1E8EE"/>
<rect x="80" y="181" width="175" height="8" rx="4" fill="#E1E8EE"/>
<rect opacity="0.570482" x="109" y="236" width="55" height="4" rx="2" fill="#E1E8EE"/>
<rect opacity="0.570482" x="109" y="245" width="41" height="3" rx="1.5" fill="#E1E8EE"/>
<rect x="80" y="87" width="41" height="41" rx="6" fill="url(#paint0_linear)"/>
<path fill-rule="evenodd" clip-rule="evenodd" d="M84.4322 251.687C86.259 251.932 89.019 252.044 90.9996 252.044C92.9803 252.044 95.741 251.932 97.5671 251.687C97.4196 249.638 96.4737 248.546 94.4859 248.08H94.4852C93.2175 247.782 92.3881 246.836 92.1495 245.414L92.0775 244.987L92.4269 244.73C93.2648 244.112 93.8316 243.009 93.9431 241.781C94.0638 240.455 93.6707 239.154 92.8921 238.302C92.5215 237.896 91.8926 237.412 90.9996 237.412C90.1074 237.412 89.4778 237.896 89.1072 238.302C88.3286 239.154 87.9355 240.455 88.0562 241.781C88.1677 243.009 88.7345 244.112 89.5731 244.73L89.9218 244.987L89.8505 245.414C89.6119 246.836 88.7825 247.782 87.5141 248.08C85.5263 248.546 84.5797 249.638 84.4322 251.687M90.9996 253.456C88.726 253.456 85.436 253.309 83.5845 252.985L83 252.883V252.289C83 249.193 84.3708 247.367 87.1922 246.705C87.5875 246.613 88.1155 246.391 88.3689 245.565C87.4025 244.685 86.7842 243.378 86.6501 241.909C86.4948 240.194 87.0235 238.49 88.0646 237.35C88.8594 236.479 89.902 236 90.9996 236C92.0973 236 93.1399 236.479 93.9347 237.35C94.9765 238.49 95.5052 240.194 95.3492 241.909C95.2158 243.378 94.5968 244.685 93.6311 245.565C93.8838 246.39 94.4118 246.613 94.8078 246.705C97.6285 247.367 99 249.193 99 252.289V252.883L98.4155 252.985C96.5633 253.309 93.2733 253.456 90.9996 253.456" fill="#E1E8EE"/>
<defs>
<filter id="filter0_dd" x="0" y="0" width="356" height="381" filterUnits="userSpaceOnUse" color-interpolation-filters="sRGB">
<feFlood flood-opacity="0" result="BackgroundImageFix"/>
<feColorMatrix in="SourceAlpha" type="matrix" values="0 0 0 0 0 0 0 0 0 0 0 0 0 0 0 0 0 0 127 0"/>
<feOffset dy="36"/>
<feGaussianBlur stdDeviation="21.5"/>
<feColorMatrix type="matrix" values="0 0 0 0 0 0 0 0 0 0 0 0 0 0 0 0 0 0 0.201115 0"/>
<feBlend mode="normal" in2="BackgroundImageFix" result="effect1_dropShadow"/>
<feColorMatrix in="SourceAlpha" type="matrix" values="0 0 0 0 0 0 0 0 0 0 0 0 0 0 0 0 0 0 127 0"/>
<feOffset dy="-3"/>
<feGaussianBlur stdDeviation="22"/>
<feColorMatrix type="matrix" values="0 0 0 0 0 0 0 0 0 0 0 0 0 0 0 0 0 0 0.0313632 0"/>
<feBlend mode="normal" in2="effect1_dropShadow" result="effect2_dropShadow"/>
<feBlend mode="normal" in="SourceGraphic" in2="effect2_dropShadow" result="shape"/>
</filter>
<linearGradient id="paint0_linear" x1="121" y1="87" x2="80" y2="87" gradientUnits="userSpaceOnUse">
<stop stop-color="#20D2DC"/>
<stop offset="1" stop-color="#70AFF9"/>
</linearGradient>
</defs>
</svg>
