<svg width="379" height="531" viewBox="0 0 379 531" fill="none" xmlns="http://www.w3.org/2000/svg">
<g filter="url(#filter0_d)">
<rect x="43" y="7" width="293" height="445" rx="12" fill="white"/>
</g>
<rect x="73" y="84" width="52" height="52" rx="4" fill="url(#paint0_linear)"/>
<rect x="137" y="84" width="166.342" height="8" rx="4" fill="#E1E8EE"/>
<rect x="137" y="102" width="133" height="8" rx="4" fill="#E1E8EE"/>
<rect x="73" y="166" width="52" height="52" rx="4" fill="url(#paint1_linear)"/>
<rect x="137" y="166" width="166.342" height="8" rx="4" fill="#E1E8EE"/>
<rect x="137" y="184" width="111" height="8" rx="4" fill="#E1E8EE"/>
<rect x="73" y="250" width="52" height="52" rx="4" fill="url(#paint2_linear)"/>
<rect x="137" y="250" width="166.342" height="8" rx="4" fill="#E1E8EE"/>
<rect x="137" y="268" width="83" height="8" rx="4" fill="#E1E8EE"/>
<defs>
<filter id="filter0_d" x="0" y="0" width="379" height="531" filterUnits="userSpaceOnUse" color-interpolation-filters="sRGB">
<feFlood flood-opacity="0" result="BackgroundImageFix"/>
<feColorMatrix in="SourceAlpha" type="matrix" values="0 0 0 0 0 0 0 0 0 0 0 0 0 0 0 0 0 0 127 0"/>
<feOffset dy="36"/>
<feGaussianBlur stdDeviation="21.5"/>
<feColorMatrix type="matrix" values="0 0 0 0 0 0 0 0 0 0 0 0 0 0 0 0 0 0 0.201115 0"/>
<feBlend mode="normal" in2="BackgroundImageFix" result="effect1_dropShadow"/>
<feBlend mode="normal" in="SourceGraphic" in2="effect1_dropShadow" result="shape"/>
</filter>
<linearGradient id="paint0_linear" x1="73" y1="136" x2="125" y2="136" gradientUnits="userSpaceOnUse">
<stop stop-color="#FF5480"/>
<stop offset="1" stop-color="#FFB4A7"/>
</linearGradient>
<linearGradient id="paint1_linear" x1="125" y1="166" x2="73" y2="166" gradientUnits="userSpaceOnUse">
<stop stop-color="#20D2DC"/>
<stop offset="1" stop-color="#70AFF9"/>
</linearGradient>
<linearGradient id="paint2_linear" x1="56.5992" y1="365.115" x2="162.533" y2="321.261" gradientUnits="userSpaceOnUse">
<stop stop-color="#A17AF1"/>
<stop offset="1" stop-color="#F45D94"/>
</linearGradient>
</defs>
</svg>
